<?xml version="1.0" encoding="utf-8"?>
<!-- Generator: Adobe Illustrator 27.6.1, SVG Export Plug-In . SVG Version: 6.00 Build 0)  -->
<svg version="1.1" id="Layer_1" xmlns="http://www.w3.org/2000/svg" xmlns:xlink="http://www.w3.org/1999/xlink" x="0px" y="0px"
	 viewBox="0 0 1323.3 465.6" style="enable-background:new 0 0 1323.3 465.6;" xml:space="preserve">
<style type="text/css">
	.st0{display:none;fill:#1F3B70;}
	.st1{fill:#231F20;}
	.st2{clip-path:url(#SVGID_00000142134560853733425800000008345622409504824227_);fill:#231F20;}
	.st3{fill:#002D72;}
	.st4{fill:#044C7D;}
	.st5{clip-path:url(#SVGID_00000129181962688031750830000012549214938016109744_);fill:#002D72;}
	.st6{clip-path:url(#SVGID_00000054254062060432656880000002535396264510607234_);fill:#FFFFFF;}
	.st7{fill:#FFFFFF;}
	.st8{clip-path:url(#SVGID_00000015345024955067741540000008529632080052810169_);fill:#FFFFFF;}
	.st9{clip-path:url(#SVGID_00000022538570325986665040000004434064006168688793_);fill:#231F20;}
	.st10{clip-path:url(#SVGID_00000080179983705654223010000001887706981835424905_);fill:#231F20;}
	.st11{clip-path:url(#SVGID_00000034078145272190769410000002591935665630980790_);fill:#002D72;}
	.st12{clip-path:url(#SVGID_00000145022921410645133500000008404232975636585407_);fill:#FFFFFF;}
</style>
<g>
	<path class="st3" d="M193.1,299.7c5.1-2.8,11.3-6.8,18.1-11.8v-60.8l-18.1-12V299.7L193.1,299.7z"/>
	<path class="st3" d="M193.1,173l18.1,12v-30.7c-6-0.3-12-0.4-18.1-0.5V173L193.1,173z"/>
	<path class="st3" d="M247.3,157.5c-6-0.8-12-1.4-18.1-1.9v41.5l18.1,12V157.5L247.3,157.5z"/>
	<path class="st3" d="M229.2,239.1v33c6.1-6,12.2-13,18.1-21v-0.1L229.2,239.1L229.2,239.1z"/>
	<path class="st4" d="M247.3,251.2C247.3,251.2,247.3,251.2,247.3,251.2L247.3,251.2L247.3,251.2L247.3,251.2z"/>
	<path class="st3" d="M265.4,160.3v60.8l0.1,0c7.9-16.3,14.2-35.4,17.8-57.5l-0.6-0.1C276.9,162.3,271.1,161.2,265.4,160.3"/>
	<polygon class="st3" points="211.2,185.1 211.2,227.1 229.2,239.1 229.2,197.1 211.2,185.1 	"/>
	<path class="st3" d="M247.3,209.1v42l0,0c6.5-8.7,12.6-18.7,18-29.9v-0.1L247.3,209.1L247.3,209.1z"/>
	<path class="st4" d="M265.4,221.2C265.4,221.2,265.4,221.2,265.4,221.2v-0.1V221.2L265.4,221.2z"/>
	<path class="st3" d="M153.5,229.8c5.3-1.5,10-4.5,13.6-8.5c-2-0.7-4.3-1.4-6.9-2C158.2,223.7,155.7,227.2,153.5,229.8"/>
	<path class="st3" d="M124.8,221.4c3.6,4,8.3,7,13.6,8.5c-2.2-2.6-4.7-6.1-6.7-10.5C129.1,220,126.8,220.7,124.8,221.4"/>
	<path class="st3" d="M143.4,177.6c-2,2.2-4.3,5.2-6.2,9c1.9,0.3,4,0.4,6.2,0.5V177.6L143.4,177.6z"/>
	<path class="st3" d="M162,214.5c3.3,0.8,6,1.7,8.3,2.6c2.1-3.5,3.5-7.6,3.9-11.9h-10.5C163.5,208.5,162.9,211.6,162,214.5"/>
	<path class="st3" d="M138.5,175.2c-5.3,1.5-10,4.5-13.6,8.5c2,0.7,4.3,1.4,6.9,2C133.7,181.3,136.2,177.8,138.5,175.2"/>
	<path class="st3" d="M167.1,183.7c-3.6-4-8.3-7-13.6-8.5c2.2,2.6,4.7,6.1,6.7,10.5C162.8,185.1,165.1,184.4,167.1,183.7"/>
	<path class="st3" d="M163.7,199.9h10.5c-0.4-4.3-1.8-8.3-3.9-11.9c-2.3,0.9-5,1.8-8.3,2.6C162.9,193.4,163.5,196.6,163.7,199.9"/>
	<path class="st3" d="M148.6,227.5c2-2.2,4.3-5.2,6.2-9.1c-1.9-0.3-4-0.4-6.2-0.5V227.5L148.6,227.5z"/>
	<path class="st3" d="M143.4,205.1h-9.9c0.2,3,0.8,5.8,1.6,8.3c2.5-0.4,5.3-0.6,8.2-0.8V205.1L143.4,205.1z"/>
	<path class="st3" d="M148.6,212.7c3,0.1,5.7,0.4,8.2,0.7c0.8-2.5,1.4-5.3,1.6-8.3h-9.9V212.7L148.6,212.7z"/>
	<path class="st3" d="M154.8,186.6c-1.9-3.9-4.3-6.9-6.2-9.1v9.6C150.8,187.1,152.9,186.9,154.8,186.6"/>
	<path class="st3" d="M158.5,199.9c-0.2-3-0.8-5.8-1.6-8.3c-2.5,0.4-5.3,0.6-8.3,0.8v7.6H158.5L158.5,199.9z"/>
	<path class="st3" d="M137.2,218.4c1.9,3.8,4.2,6.9,6.2,9v-9.6C141.2,218,139.1,218.2,137.2,218.4"/>
	<path class="st3" d="M130,190.6c-3.3-0.8-6-1.7-8.3-2.6c-2.1,3.5-3.5,7.6-3.9,11.9h10.5C128.5,196.6,129.1,193.4,130,190.6"/>
	<path class="st3" d="M143.4,192.4c-2.9-0.1-5.7-0.4-8.2-0.8c-0.8,2.5-1.4,5.3-1.6,8.3h9.9V192.4L143.4,192.4z"/>
	<path class="st3" d="M128.3,205.1h-10.5c0.4,4.3,1.8,8.3,3.9,11.9c2.3-0.9,5.1-1.8,8.3-2.6C129.1,211.6,128.5,208.5,128.3,205.1"/>
	<path class="st3" d="M146,169c18.5,0,33.6,15.1,33.6,33.6c0,18.5-15.1,33.6-33.6,33.6c-18.5,0-33.6-15.1-33.6-33.6
		C112.4,184,127.5,169,146,169 M94.5,163.7c13.3,81.9,64.6,121.9,90.1,136V153.9c-30.2,0.3-60.3,3.5-89.5,9.7L94.5,163.7L94.5,163.7
		z"/>
	<path class="st3" d="M261.4,143c-23.5-4.5-50.5-5.8-72.6-5.8h0c-22.1,0-49.1,1.4-72.6,5.8c-0.9,0.2-1.7-0.6-1.2-1.6l15.4-34.1
		c0.2-0.3,10.1-5.3,10.1-5.3c12.7-2.7,33.6-1.5,48.1,3.9h0.1c14.6-5.4,35.5-6.5,48.1-3.9c0,0,10,4.9,10.1,5.3l15.4,34.1
		C263.1,142.3,262.3,143.1,261.4,143 M282.5,101L282.5,101c-30.3-6.5-61.6-9.9-93.7-9.9c-32.1,0-63.5,3.4-93.7,9.9l-0.1,0
		c-2.1,0.5-3.7,2.5-3.7,4.8l0,16.9c0,11.1,0.7,21.6,1.9,31.6c31.4-6.6,63.6-10,95.7-10c32.1,0,64.3,3.3,95.6,9.9
		c1.2-9.9,1.9-20.4,1.9-31.6l0-16.9C286.4,103.5,284.8,101.5,282.5,101"/>
	<path class="st3" d="M233,107.9l6.5,17.4c-15.1-2.1-27.7-1.1-46.2,4.9v1.6c17.5-0.7,39.6-1.6,57.5,2.2l-9.7-22.4L233,107.9
		L233,107.9z"/>
	<path class="st3" d="M138,125.3l6.5-17.4l-8.1,3.7l-9.7,22.4c17.9-3.8,40-2.9,57.5-2.2v-1.6C165.7,124.1,153.1,123.2,138,125.3"/>
	<g>
		<defs>
			<polygon id="SVGID_00000131364064894293210810000008177959906678885538_" points="319.2,234 1191.7,234 1191.7,114.9 
				319.2,114.9 319.2,234 			"/>
		</defs>
		<clipPath id="SVGID_00000053525356737539267690000006417001130247567241_">
			<use xlink:href="#SVGID_00000131364064894293210810000008177959906678885538_"  style="overflow:visible;"/>
		</clipPath>
		<path style="clip-path:url(#SVGID_00000053525356737539267690000006417001130247567241_);fill:#002D72;" d="M344.5,136.7
			c0-15.3-1.4-17-9.5-17.7l-3.4-0.3c-0.8-0.6-0.6-3,0.3-3.4c8,0.3,12.7,0.4,18.5,0.4c5.5,0,10.2-0.1,15.7-0.4
			c0.8,0.4,1.1,2.9,0.3,3.4l-2.1,0.3c-8.1,1.1-8.4,3-8.4,17.7v51.2c0,10.9-0.6,20.4-3.2,26.7c-4.6,11-14.3,19.9-27.2,19.9
			c-1.6,0-5.9-0.1-5.9-2.9c0-2.3,2.1-6.4,5-6.4c1.7,0,3.3,0.3,5.1,0.8c1.9,0.5,3.9,1,5.8,1c2.9,0,4.6-1.7,5.5-3.6
			c3.2-6.5,3.6-27.2,3.6-34.6V136.7L344.5,136.7z"/>
	</g>
	<path class="st3" d="M436.2,171.6c0-19.2-8.5-39.9-30.7-39.9c-12.1,0-27.8,8.3-27.8,33.7c0,17.2,8.4,39.6,31.3,39.6
		C422.9,205,436.2,194.5,436.2,171.6 M366,169.2c0-23.3,17.5-41.1,41.4-41.1c26.9,0,40.4,19.4,40.4,39.9c0,23.5-17.9,40.6-40.4,40.6
		C381.6,208.6,366,190.1,366,169.2"/>
	<path class="st3" d="M474.2,169.2c-5.6,0-5.8,0.2-5.8,3.7v16.4c0,12.2,0.6,13.8,7.1,14.5l3.4,0.4c0.7,0.5,0.5,2.6-0.2,2.9
		c-6.3-0.2-10.2-0.3-14.8-0.3c-5,0-9,0.2-13.5,0.3c-0.7-0.3-0.9-2.2-0.2-2.9l2-0.4c6.5-1.2,6.7-2.3,6.7-14.5v-41.9
		c0-12.2-0.8-14.2-6.9-14.7l-3-0.2c-0.7-0.5-0.5-2.6,0.2-2.9c5.7,0.1,9.7,0.3,14.7,0.3c4.5,0,8.5-0.1,13.5-0.3
		c0.7,0.3,0.9,2.4,0.2,2.9l-2.2,0.2c-6.7,0.7-7,2.4-7,14.7v13.4c0,3.6,0.2,3.7,5.8,3.7h33.3c5.6,0,5.8-0.1,5.8-3.7v-13.4
		c0-12.2-0.2-14-7.1-14.7l-2.2-0.2c-0.7-0.5-0.5-2.6,0.2-2.9c5.4,0.2,9.3,0.3,14.1,0.3c4.5,0,8.5-0.1,13.7-0.3
		c0.7,0.3,0.9,2.4,0.2,2.9l-2.4,0.2c-6.7,0.7-7,2.4-7,14.7v41.9c0,12.2,0.2,13.7,7,14.5l2.8,0.4c0.7,0.5,0.5,2.6-0.2,2.9
		c-5.6-0.2-9.5-0.3-14.1-0.3c-4.8,0-9,0.1-14.1,0.3c-0.7-0.3-0.9-2.2-0.2-2.9l2.2-0.4c7.1-1.2,7.1-2.3,7.1-14.5v-16.4
		c0-3.5-0.2-3.7-5.8-3.7H474.2L474.2,169.2z"/>
	<path class="st3" d="M612.1,187c0,3.5,0,17.3,0.3,20.4c-0.2,0.7-0.9,1.3-2.2,1.3c-1.4-2-4.8-6-14.9-17.6l-27-30.7
		c-3.1-3.6-11.1-13.1-13.5-15.7h-0.2c-0.5,1.4-0.6,4.1-0.6,7.6v25.4c0,5.5,0.1,20.6,2.1,24.1c0.7,1.3,3,2,5.9,2.2l3.6,0.4
		c0.7,0.9,0.6,2.3-0.2,2.9c-5.2-0.2-9.3-0.3-13.6-0.3c-4.9,0-8,0.1-12.1,0.3c-0.8-0.6-0.9-2.2-0.2-2.9l3.1-0.4
		c2.7-0.3,4.5-1,5.1-2.3c1.6-4.2,1.5-18.4,1.5-24v-33.6c0-3.3-0.1-5.7-2.6-8.4c-1.6-1.6-4.4-2.4-7.2-2.8l-2-0.2
		c-0.7-0.7-0.7-2.4,0.2-2.9c4.9,0.3,11.1,0.3,13.1,0.3c1.9,0,3.8-0.1,5.3-0.3c2.3,5.9,16.1,21.3,19.9,25.6l11.3,12.7
		c8,9,13.7,15.5,19.2,21.1h0.2c0.5-0.6,0.5-2.4,0.5-4.9v-24.9c0-5.5-0.1-20.6-2.3-24.1c-0.7-1-2.6-1.7-7.2-2.3l-2-0.2
		c-0.8-0.7-0.7-2.6,0.2-2.9c5.4,0.2,9.3,0.3,13.7,0.3c5,0,8-0.1,12-0.3c0.9,0.6,0.9,2.2,0.2,2.9l-1.6,0.2c-3.7,0.6-6.1,1.5-6.5,2.4
		c-2,4.2-1.7,18.6-1.7,24V187L612.1,187z"/>
	<path class="st3" d="M642.9,208.6c-9.8,0-15.9-3-18.1-4.3c-1.4-2.6-2.9-10.8-3.1-16.3c0.6-0.8,2.3-1.1,2.8-0.3
		c1.7,5.9,6.5,17.3,20,17.3c9.8,0,14.5-6.4,14.5-13.4c0-5.1-1-10.8-9.5-16.3l-11.1-7.2c-5.8-3.8-12.6-10.5-12.6-20
		c0-11.1,8.6-20,23.7-20c3.6,0,7.8,0.7,10.8,1.5c1.5,0.5,3.1,0.7,4.1,0.7c1,2.8,2.1,9.3,2.1,14.2c-0.5,0.7-2.3,1-2.9,0.4
		c-1.5-5.6-4.6-13.2-15.8-13.2c-11.4,0-13.8,7.6-13.8,12.9c0,6.7,5.6,11.6,9.9,14.3l9.3,5.8c7.3,4.5,14.5,11.3,14.5,22.3
		C667.7,199.9,658,208.6,642.9,208.6"/>
	<path class="st3" d="M736.7,162.2c-6.6,0-6.9,0.3-6.9,4.4V186c0,14.5,0.7,16.4,8.4,17.2l4,0.4c0.8,0.5,0.6,3-0.3,3.4
		c-7.4-0.3-12.1-0.4-17.5-0.4c-5.9,0-10.6,0.3-16,0.4c-0.8-0.4-1.1-2.6-0.3-3.4l2.3-0.4c7.7-1.4,8-2.8,8-17.2v-49.7
		c0-14.5-1-16.8-8.1-17.4l-3.6-0.3c-0.8-0.5-0.6-3,0.3-3.4c6.8,0.1,11.4,0.4,17.4,0.4c5.4,0,10.1-0.1,16-0.4
		c0.8,0.4,1.1,2.9,0.3,3.4l-2.6,0.3c-8,0.8-8.3,2.9-8.3,17.4v15.9c0,4.3,0.3,4.4,6.9,4.4h39.4c6.6,0,6.9-0.1,6.9-4.4v-15.9
		c0-14.5-0.3-16.5-8.4-17.4l-2.6-0.3c-0.8-0.5-0.5-3,0.3-3.4c6.3,0.3,11,0.4,16.7,0.4c5.4,0,10.1-0.1,16.3-0.4
		c0.8,0.4,1.1,2.9,0.3,3.4l-2.9,0.3c-8,0.8-8.3,2.9-8.3,17.4V186c0,14.5,0.3,16.3,8.3,17.2l3.3,0.4c0.8,0.5,0.6,3-0.3,3.4
		c-6.6-0.3-11.3-0.4-16.7-0.4c-5.7,0-10.6,0.1-16.7,0.4c-0.8-0.4-1.1-2.6-0.3-3.4l2.6-0.4c8.4-1.4,8.4-2.8,8.4-17.2v-19.4
		c0-4.1-0.3-4.4-6.9-4.4H736.7L736.7,162.2z"/>
	<path class="st3" d="M875.2,171.6c0-19.2-8.5-39.9-30.7-39.9c-12.1,0-27.8,8.3-27.8,33.7c0,17.2,8.4,39.6,31.3,39.6
		C862,205,875.2,194.5,875.2,171.6 M805.1,169.2c0-23.3,17.5-41.1,41.4-41.1c26.9,0,40.4,19.4,40.4,39.9c0,23.5-17.9,40.6-40.4,40.6
		C820.7,208.6,805.1,190.1,805.1,169.2"/>
	<path class="st3" d="M907.9,189.3c0,12.2,0.2,13.7,7.7,14.5l3.1,0.3c0.7,0.6,0.5,2.6-0.2,2.9c-6.6-0.2-10.5-0.3-15.1-0.3
		c-4.9,0-9.1,0.1-14.2,0.3c-0.7-0.3-0.9-2.2-0.2-2.9l2.4-0.3c6.7-0.9,7-2.3,7-14.5v-42.9c0-9.9-0.2-11.9-5.5-12.5l-4.2-0.5
		c-0.8-0.7-0.7-2.4,0.2-2.9c6.2-0.8,13.4-0.9,23-0.9c9.7,0,16.9,1.3,22.3,4.7c5.4,3.4,9.3,9.4,9.3,17.4c0,10.7-6.6,16.1-11.6,18.5
		c-5.1,2.4-11.3,3.5-16.1,3.5c-0.8-0.3-0.8-2.1-0.1-2.3c12.6-2.3,17.1-9.4,17.1-19.6c0-11.3-6.6-18.6-18.7-18.6
		c-6.2,0-6.3,0.5-6.3,4.2V189.3L907.9,189.3z"/>
	<path class="st3" d="M956.3,147.4c0-12.2-0.2-14.1-7-14.7l-2.9-0.2c-0.7-0.5-0.5-2.6,0.2-2.9c5.7,0.2,9.4,0.3,14.7,0.3
		c4.5,0,8.5-0.1,13.5-0.3c0.7,0.3,0.9,2.4,0.2,2.9l-2.2,0.2c-6.7,0.7-7,2.4-7,14.7v13.4c0,2.2,0.2,4.4,1.5,4.4c1,0,2.4-0.7,3.3-1.3
		c1.6-1.4,4.7-4.4,5.9-5.6l12.6-12.4c2.2-2.1,7.9-8,9.1-9.7c0.6-0.8,0.8-1.4,0.8-1.9c0-0.5-0.5-0.8-2-1.2l-3.1-0.7
		c-0.8-0.8-0.7-2.3,0.2-2.9c4.1,0.2,8.7,0.3,12.8,0.3c4.1,0,8-0.1,11.5-0.3c0.8,0.6,0.9,2.2,0.2,2.9c-3,0.2-7.6,1.4-10.8,3.3
		c-3.3,1.9-9.8,7.3-16.3,13.5l-10.5,9.9c-1.6,1.6-2.7,2.7-2.7,3.6c0,0.8,0.7,1.8,2.2,3.6c11.1,12.7,20,23.2,29.1,32.7
		c2.8,2.8,4.9,4.3,8.9,4.8l2.2,0.3c0.8,0.6,0.6,2.6-0.2,2.9c-3-0.2-6.2-0.4-11.7-0.4c-4.8,0-8.9,0.1-14.2,0.4
		c-0.8-0.2-1.2-2.2-0.5-2.9l2.7-0.5c1.6-0.2,2.8-0.6,2.8-1.2c0-0.7-0.8-1.6-1.6-2.7c-2.2-2.8-5.2-5.9-9.7-10.9l-9.3-10.5
		c-6.6-7.4-8.5-9.8-11.3-9.8c-1.7,0-2,1.5-2,5.6v15c0,12.2,0.2,13.8,6.7,14.5l3.1,0.3c0.7,0.5,0.5,2.6-0.2,2.9
		c-5.7-0.2-9.7-0.4-14.2-0.4c-4.8,0-8.7,0.1-13.5,0.4c-0.7-0.4-0.9-2.1-0.2-2.9l2.3-0.3c6.2-0.9,6.4-2.3,6.4-14.5V147.4L956.3,147.4
		z"/>
	<path class="st3" d="M1036.2,147.6c0-12.3-0.2-14.3-7.1-14.9l-2.9-0.2c-0.7-0.5-0.5-2.6,0.2-2.9c5.8,0.2,9.8,0.4,14.7,0.4
		c4.7,0,8.6-0.1,14.4-0.4c0.7,0.4,0.9,2.4,0.2,2.9l-2.9,0.2c-6.9,0.6-7.1,2.6-7.1,14.9V189c0,12.3,0.2,14,7.1,14.8l2.9,0.3
		c0.7,0.5,0.5,2.6-0.2,2.9c-5.8-0.2-9.8-0.4-14.4-0.4c-4.9,0-8.4,0.1-14.2,0.4c-0.7-0.4-0.9-2.2-0.2-2.9l2.5-0.3
		c6.9-0.8,7.1-2.4,7.1-14.8V147.6L1036.2,147.6z"/>
	<path class="st3" d="M1136.4,186.5c0,3.5,0,17.3,0.4,20.4c-0.2,0.7-0.9,1.3-2.2,1.3c-1.4-2-4.8-6-14.9-17.6l-27-30.7
		c-3.1-3.6-11.1-13.1-13.5-15.7h-0.2c-0.5,1.4-0.6,4.1-0.6,7.6v25.4c0,5.5,0.1,20.6,2.1,24.1c0.7,1.3,3,2,5.9,2.2l3.6,0.4
		c0.7,0.9,0.6,2.3-0.2,2.9c-5.2-0.2-9.3-0.3-13.6-0.3c-4.9,0-8,0.1-12.1,0.3c-0.8-0.6-0.9-2.2-0.2-2.9l3.1-0.4
		c2.7-0.3,4.5-1,5.1-2.3c1.6-4.2,1.5-18.4,1.5-24v-33.6c0-3.3-0.1-5.7-2.6-8.4c-1.6-1.6-4.4-2.4-7.2-2.8l-2-0.2
		c-0.7-0.7-0.7-2.4,0.2-2.9c4.9,0.3,11,0.3,13.1,0.3c1.9,0,3.8-0.1,5.4-0.3c2.3,5.9,16.1,21.3,19.9,25.6l11.3,12.7
		c8,9,13.7,15.5,19.2,21.1h0.2c0.5-0.6,0.5-2.4,0.5-4.9v-24.9c0-5.5-0.1-20.6-2.3-24.1c-0.7-1-2.6-1.7-7.2-2.3l-2-0.2
		c-0.8-0.7-0.7-2.6,0.2-2.9c5.4,0.2,9.3,0.3,13.7,0.3c5,0,8-0.1,12-0.3c0.9,0.6,0.9,2.2,0.2,2.9l-1.6,0.2c-3.7,0.6-6.1,1.5-6.5,2.4
		c-2,4.2-1.7,18.6-1.7,24V186.5L1136.4,186.5z"/>
	<path class="st3" d="M1167,208.2c-9.8,0-15.9-3-18.2-4.3c-1.4-2.6-2.9-10.8-3.1-16.3c0.6-0.8,2.3-1.1,2.8-0.3
		c1.7,5.9,6.5,17.3,20,17.3c9.8,0,14.5-6.4,14.5-13.4c0-5.1-1.1-10.8-9.5-16.3l-11-7.2c-5.8-3.8-12.6-10.5-12.6-20
		c0-11.1,8.6-20,23.7-20c3.6,0,7.8,0.7,10.8,1.5c1.5,0.5,3.1,0.7,4.1,0.7c1.1,2.8,2.1,9.3,2.1,14.2c-0.5,0.7-2.3,1-2.9,0.4
		c-1.5-5.6-4.6-13.2-15.8-13.2c-11.4,0-13.8,7.6-13.8,12.9c0,6.7,5.6,11.6,9.9,14.3l9.3,5.8c7.3,4.5,14.5,11.3,14.5,22.3
		C1191.7,199.5,1182.1,208.2,1167,208.2"/>
	<path class="st3" d="M486.1,267.3c0-6.3-0.1-7.3-3.6-7.6l-1.5-0.1c-0.4-0.2-0.2-1.3,0.1-1.5c2.9,0.1,4.9,0.2,7.6,0.2
		c2.3,0,4.4-0.1,7-0.2c0.4,0.2,0.5,1.3,0.1,1.5l-1.1,0.1c-3.5,0.4-3.6,1.3-3.6,7.6v6.9c0,1.1,0.1,2.3,0.8,2.3c0.5,0,1.3-0.4,1.7-0.7
		c0.8-0.7,2.4-2.3,3.1-2.9l6.5-6.4c1.1-1.1,4.1-4.1,4.7-5c0.3-0.4,0.4-0.7,0.4-1c0-0.2-0.2-0.4-1-0.6l-1.6-0.4
		c-0.4-0.4-0.4-1.2,0.1-1.5c2.1,0.1,4.5,0.2,6.6,0.2c2.1,0,4.2-0.1,6-0.2c0.4,0.3,0.5,1.1,0.1,1.5c-1.6,0.1-3.9,0.7-5.6,1.7
		c-1.7,1-5,3.8-8.4,7l-5.4,5.1c-0.8,0.8-1.4,1.4-1.4,1.9c0,0.4,0.4,0.9,1.1,1.9c5.7,6.6,10.3,12,15,16.9c1.4,1.4,2.8,2.2,4.8,2.5
		l1.6,0.2c0.4,0.3,0.3,1.3-0.1,1.5c-1.6-0.1-3.9-0.2-6.7-0.2c-2.5,0-4.6,0.1-7.3,0.2c-0.4-0.1-0.6-1.1-0.2-1.5l1.4-0.2
		c0.8-0.1,1.4-0.3,1.4-0.6c0-0.4-0.4-0.8-0.8-1.4c-1.1-1.4-2.7-3.1-5-5.7l-4.8-5.4c-3.4-3.8-4.4-5.1-5.8-5.1c-0.9,0-1,0.8-1,2.9v7.8
		c0,6.3,0.1,7.2,3.5,7.5l1.6,0.2c0.4,0.2,0.2,1.3-0.1,1.5c-3-0.1-5-0.2-7.3-0.2c-2.5,0-4.5,0.1-7,0.2c-0.4-0.2-0.5-1.1-0.1-1.5
		l1.2-0.2c3.2-0.5,3.3-1.2,3.3-7.5V267.3L486.1,267.3z"/>
	<path class="st3" d="M534.6,276c0,1.1,0,1.7,0.2,2c0.2,0.2,1.1,0.3,4.2,0.3c2.2,0,4.5-0.2,6.2-1.6c1.6-1.3,3-3.4,3-7.5
		c0-4.8-2.9-9.3-9.6-9.3c-3.7,0-3.9,0.2-3.9,1.9V276L534.6,276z M529.6,267.4c0-5.7-0.2-6.7-2.6-7l-1.9-0.2
		c-0.4-0.3-0.4-1.3,0.1-1.5c3.4-0.3,7.5-0.5,13.4-0.5c3.7,0,7.3,0.3,10,1.8c2.9,1.5,5,4.2,5,8.4c0,5.7-4.5,8.8-7.5,10
		c-0.3,0.4,0,1,0.3,1.4c4.8,7.8,8,12.6,12.1,16c1,0.9,2.5,1.6,4.1,1.7c0.3,0.1,0.4,0.6,0.1,0.8c-0.5,0.2-1.5,0.3-2.6,0.3
		c-5.1,0-8.2-1.5-12.4-7.6c-1.6-2.2-4-6.4-5.9-9.1c-0.9-1.3-1.9-1.9-4.3-1.9c-2.7,0-2.8,0.1-2.8,1.3v7.6c0,6.3,0.1,7,3.6,7.5
		l1.3,0.2c0.4,0.3,0.2,1.3-0.1,1.5c-2.7-0.1-4.8-0.2-7.2-0.2c-2.5,0-4.7,0.1-7.5,0.2c-0.4-0.2-0.5-1.1-0.1-1.5l1.5-0.2
		c3.5-0.4,3.6-1.2,3.6-7.5V267.4L529.6,267.4z"/>
	<path class="st3" d="M571.4,267.5c0-6.4-0.1-7.4-3.7-7.7l-1.5-0.1c-0.4-0.2-0.2-1.3,0.1-1.5c3,0.1,5.1,0.2,7.6,0.2
		c2.4,0,4.4-0.1,7.5-0.2c0.4,0.2,0.5,1.3,0.1,1.5l-1.5,0.1c-3.5,0.3-3.7,1.3-3.7,7.7v21.4c0,6.4,0.1,7.2,3.7,7.6l1.5,0.2
		c0.4,0.2,0.2,1.3-0.1,1.5c-3-0.1-5.1-0.2-7.5-0.2c-2.5,0-4.6,0.1-7.6,0.2c-0.4-0.2-0.5-1.1-0.1-1.5l1.5-0.2
		c3.6-0.4,3.7-1.3,3.7-7.6V267.5L571.4,267.5z"/>
	<path class="st3" d="M594.7,267.3c0-6.3-0.1-7.2-3.7-7.6l-1-0.1c-0.4-0.2-0.2-1.3,0.1-1.5c2.6,0.1,4.6,0.2,7.1,0.2h11.3
		c3.8,0,7.4,0,8.1-0.2c0.4,1,0.7,5.3,1,8c-0.2,0.4-1.2,0.5-1.5,0.1c-0.9-2.8-1.4-4.9-4.6-5.7c-1.3-0.3-3.2-0.4-5.8-0.4h-4.3
		c-1.8,0-1.8,0.1-1.8,2.4v12c0,1.7,0.2,1.7,2,1.7h3.5c2.5,0,4.4-0.1,5.1-0.4c0.7-0.2,1.1-0.6,1.4-2.1l0.5-2.5
		c0.3-0.4,1.3-0.4,1.6,0.1c0,1.4-0.2,3.8-0.2,6.1c0,2.2,0.2,4.5,0.2,5.8c-0.2,0.4-1.3,0.4-1.6,0.1l-0.5-2.3c-0.2-1.1-0.7-2-1.9-2.3
		c-0.8-0.2-2.3-0.3-4.6-0.3h-3.5c-1.8,0-2,0.1-2,1.6v8.5c0,3.2,0.2,5.2,1.1,6.3c0.7,0.7,2,1.4,7.3,1.4c4.6,0,6.4-0.2,7.7-0.9
		c1.1-0.6,2.7-2.7,4.3-5.8c0.4-0.3,1.3-0.1,1.5,0.4c-0.4,2.1-1.9,6.7-2.7,8.4c-5.4-0.1-10.8-0.2-16.1-0.2h-5.4
		c-2.6,0-4.6,0.1-8.2,0.2c-0.4-0.2-0.5-1.1-0.1-1.5l2-0.2c3.4-0.3,3.7-1.2,3.7-7.5V267.3L594.7,267.3z"/>
	<path class="st3" d="M662.6,291.9c0,2.4,0.4,3.8,1.4,4.3c0.2,0.2,0.2,0.5-0.1,0.7c-0.7,0-1.8,0.2-2.9,0.5
		c-3.2,0.8-7.5,1.6-10.8,1.6c-7.2,0-13.7-2-18.3-6.7c-3.6-3.6-5.5-8.4-5.5-13.7c0-5.1,1.7-10.3,5.4-14.3c4-4.2,10-7,19.1-7
		c3.4,0,6.6,0.7,7.6,0.9c1.1,0.2,3,0.7,3.7,0.5c0,2,0.4,5.1,0.9,8.7c-0.2,0.5-1.3,0.5-1.6,0.2c-1.7-6.5-6.2-8.5-12.3-8.5
		c-11.7,0-16.8,8.3-16.8,17.3c0,11.5,6,20.6,18,20.6c3.7,0,6-0.8,6.6-1.8c0.3-0.4,0.6-1.5,0.6-3.4v-2.4c0-5.1-0.2-5.4-3.9-5.8
		l-2.6-0.3c-0.5-0.2-0.4-1.3,0-1.5c1.7,0.1,5,0.2,8.6,0.2c2.4,0,4.4-0.1,6.4-0.2c0.4,0.2,0.5,1.1,0.1,1.5l-1,0.1
		c-2.5,0.3-2.6,2-2.6,5.1V291.9L662.6,291.9z"/>
	<path class="st3" d="M677.6,267.3c0-6.3-0.1-7.2-3.7-7.6l-1-0.1c-0.4-0.2-0.2-1.3,0.1-1.5c2.6,0.1,4.6,0.2,7.1,0.2h11.3
		c3.8,0,7.4,0,8.1-0.2c0.4,1,0.7,5.3,1,8c-0.2,0.4-1.2,0.5-1.5,0.1c-0.9-2.8-1.4-4.9-4.6-5.7c-1.3-0.3-3.2-0.4-5.8-0.4h-4.3
		c-1.8,0-1.8,0.1-1.8,2.4v12c0,1.7,0.2,1.7,2,1.7h3.5c2.5,0,4.4-0.1,5.1-0.4c0.7-0.2,1.1-0.6,1.4-2.1l0.5-2.5
		c0.3-0.4,1.3-0.4,1.6,0.1c0,1.4-0.2,3.8-0.2,6.1c0,2.2,0.2,4.5,0.2,5.8c-0.2,0.4-1.3,0.4-1.6,0.1l-0.5-2.3c-0.2-1.1-0.7-2-1.9-2.3
		c-0.8-0.2-2.3-0.3-4.6-0.3h-3.5c-1.8,0-2,0.1-2,1.6v8.5c0,3.2,0.2,5.2,1.1,6.3c0.7,0.7,2,1.4,7.3,1.4c4.6,0,6.4-0.2,7.7-0.9
		c1.1-0.6,2.7-2.7,4.3-5.8c0.4-0.3,1.3-0.1,1.5,0.4c-0.4,2.1-1.9,6.7-2.7,8.4c-5.4-0.1-10.8-0.2-16.1-0.2h-5.4
		c-2.6,0-4.6,0.1-8.2,0.2c-0.4-0.2-0.5-1.1-0.1-1.5l2-0.2c3.4-0.3,3.7-1.2,3.7-7.5V267.3L677.6,267.3z"/>
	<path class="st3" d="M720.7,276c0,1.1,0,1.7,0.2,2c0.2,0.2,1.1,0.3,4.1,0.3c2.2,0,4.5-0.2,6.2-1.6c1.6-1.3,3-3.4,3-7.5
		c0-4.8-2.9-9.3-9.6-9.3c-3.7,0-3.9,0.2-3.9,1.9V276L720.7,276z M715.7,267.4c0-5.7-0.2-6.7-2.6-7l-1.9-0.2
		c-0.4-0.3-0.4-1.3,0.1-1.5c3.4-0.3,7.5-0.5,13.4-0.5c3.7,0,7.3,0.3,10,1.8c2.9,1.5,5,4.2,5,8.4c0,5.7-4.5,8.8-7.5,10
		c-0.3,0.4,0,1,0.3,1.4c4.8,7.8,8,12.6,12.1,16c1,0.9,2.5,1.6,4.1,1.7c0.3,0.1,0.4,0.6,0.1,0.8c-0.5,0.2-1.5,0.3-2.6,0.3
		c-5.1,0-8.2-1.5-12.4-7.6c-1.6-2.2-4-6.4-5.9-9.1c-0.9-1.3-1.9-1.9-4.3-1.9c-2.7,0-2.8,0.1-2.8,1.3v7.6c0,6.3,0.1,7,3.6,7.5
		l1.3,0.2c0.4,0.3,0.2,1.3-0.1,1.5c-2.7-0.1-4.8-0.2-7.2-0.2c-2.5,0-4.7,0.1-7.5,0.2c-0.4-0.2-0.5-1.1-0.1-1.5l1.5-0.2
		c3.5-0.4,3.6-1.2,3.6-7.5V267.4L715.7,267.4z"/>
	<path class="st3" d="M781.3,299c-5.1,0-8.2-1.6-9.4-2.2c-0.7-1.3-1.5-5.6-1.6-8.4c0.3-0.4,1.2-0.5,1.4-0.2c0.9,3.1,3.4,9,10.3,9
		c5.1,0,7.5-3.3,7.5-6.9c0-2.6-0.5-5.6-4.9-8.4l-5.7-3.7c-3-2-6.5-5.4-6.5-10.3c0-5.7,4.5-10.3,12.3-10.3c1.9,0,4,0.4,5.6,0.8
		c0.8,0.2,1.6,0.4,2.1,0.4c0.5,1.4,1.1,4.8,1.1,7.3c-0.2,0.4-1.2,0.5-1.5,0.2c-0.8-2.9-2.4-6.8-8.2-6.8c-5.9,0-7.2,3.9-7.2,6.7
		c0,3.5,2.9,6,5.1,7.4l4.8,3c3.8,2.4,7.5,5.8,7.5,11.5C794.1,294.5,789.2,299,781.3,299"/>
	<path class="st3" d="M810.4,262.5c4.4-3.4,10-5.1,16.2-5.1c3.2,0,7.8,0.7,10.6,1.4c0.7,0.2,1.1,0.3,1.7,0.2
		c0.1,1.4,0.4,5.2,0.8,8.8c-0.3,0.4-1.2,0.5-1.6,0.1c-0.9-4.1-3.6-8.8-12.3-8.8c-9.2,0-17,5.8-17,18.3c0,12.6,8,19.6,17.9,19.6
		c7.8,0,11.2-5,12.6-8.6c0.4-0.3,1.3-0.2,1.6,0.2c-0.4,3.1-2,7.1-2.9,8.2c-0.7,0.1-1.4,0.4-2.1,0.6c-1.3,0.5-5.7,1.4-9.5,1.4
		c-5.4,0-10.6-1.1-15-4c-4.8-3.3-8.5-8.8-8.5-16.5C802.8,271.7,805.8,266,810.4,262.5"/>
	<path class="st3" d="M860.6,278.6c-2.9,0-3,0.1-3,1.9v8.5c0,6.3,0.3,7.2,3.7,7.5l1.7,0.2c0.4,0.2,0.2,1.3-0.1,1.5
		c-3.2-0.1-5.3-0.2-7.6-0.2c-2.6,0-4.6,0.1-7,0.2c-0.4-0.2-0.5-1.1-0.1-1.5l1-0.2c3.4-0.6,3.5-1.2,3.5-7.5v-21.6
		c0-6.3-0.4-7.3-3.5-7.6l-1.6-0.1c-0.4-0.2-0.2-1.3,0.1-1.5c2.9,0.1,5,0.2,7.6,0.2c2.3,0,4.4-0.1,7-0.2c0.4,0.2,0.5,1.3,0.1,1.5
		l-1.1,0.1c-3.5,0.4-3.6,1.3-3.6,7.6v6.9c0,1.9,0.1,1.9,3,1.9h17.2c2.9,0,3-0.1,3-1.9v-6.9c0-6.3-0.1-7.2-3.7-7.6l-1.1-0.1
		c-0.4-0.2-0.2-1.3,0.1-1.5c2.8,0.1,4.8,0.2,7.3,0.2c2.4,0,4.4-0.1,7.1-0.2c0.4,0.2,0.5,1.3,0.1,1.5l-1.3,0.1
		c-3.5,0.4-3.6,1.3-3.6,7.6V289c0,6.3,0.1,7.1,3.6,7.5l1.4,0.2c0.4,0.2,0.2,1.3-0.1,1.5c-2.9-0.1-4.9-0.2-7.3-0.2
		c-2.5,0-4.6,0.1-7.3,0.2c-0.4-0.2-0.5-1.1-0.1-1.5l1.1-0.2c3.7-0.6,3.7-1.2,3.7-7.5v-8.5c0-1.8-0.1-1.9-3-1.9H860.6L860.6,278.6z"
		/>
	<path class="st3" d="M934.8,279.9c0-9.9-4.4-20.6-15.9-20.6c-6.3,0-14.4,4.3-14.4,17.4c0,8.9,4.3,20.4,16.2,20.4
		C927.9,297.1,934.8,291.7,934.8,279.9 M898.5,278.6c0-12,9-21.2,21.4-21.2c13.9,0,20.9,10,20.9,20.6c0,12.1-9.3,21-20.9,21
		C906.6,299,898.5,289.4,898.5,278.6"/>
	<path class="st3" d="M985.6,279.9c0-9.9-4.4-20.6-15.9-20.6c-6.3,0-14.4,4.3-14.4,17.4c0,8.9,4.3,20.4,16.2,20.4
		C978.7,297.1,985.6,291.7,985.6,279.9 M949.3,278.6c0-12,9-21.2,21.4-21.2c13.9,0,20.9,10,20.9,20.6c0,12.1-9.3,21-20.9,21
		C957.4,299,949.3,289.4,949.3,278.6"/>
	<path class="st3" d="M1004.6,267.3c0-6.3-0.1-7.3-3.9-7.6l-1.5-0.1c-0.4-0.2-0.2-1.3,0.1-1.5c3.4,0.1,5.4,0.2,7.8,0.2
		c2.3,0,4.4-0.1,7.4-0.2c0.4,0.2,0.5,1.3,0.1,1.5l-1.4,0.1c-3.5,0.3-3.7,1.3-3.7,7.6v20.9c0,3.8,0.2,5.4,1.3,6.5
		c0.7,0.7,1.8,1.4,6.6,1.4c5.1,0,6.4-0.2,7.3-0.8c1.2-0.7,2.8-2.9,4-6c0.4-0.3,1.5-0.1,1.5,0.4c0,0.7-1.7,6.8-2.5,8.4
		c-3.1-0.1-8.8-0.2-15-0.2h-5.5c-2.5,0-4.5,0.1-7.8,0.2c-0.4-0.2-0.5-1.1-0.1-1.5l1.8-0.2c3.5-0.4,3.6-1.2,3.6-7.5V267.3
		L1004.6,267.3z"/>
	<path class="st3" d="M468.8,343.6c-3.5,4.7-5.8,11.8-6,15c-0.1,2.1,0.7,3.8,2.5,3.8c1.3,0,2.8-0.5,4.7-3.1
		c2.6-3.5,5.5-11.5,5.6-14.7c0.1-1.9-0.3-4-2.4-4C472,340.7,470.5,341.2,468.8,343.6 M479.7,346.5c-0.2,3.3-1.9,9.1-6.4,13.6
		c-3.7,3.8-7,4.2-8.6,4.2c-3.8,0-6.4-2.8-6-8c0.2-3.7,2.5-9.6,6.5-13.5c3.1-3,5.8-3.9,8.3-3.9C477.9,338.9,480,342.1,479.7,346.5"/>
	<path class="st3" d="M497.2,341.9c-0.4,1-0.8,2.9-1.6,5.6c-1.8,6.7-3.4,12.5-5.4,19.1c-1.6,5.4-3.5,8.5-4.8,9.7
		c-0.9,0.8-3.7,3.2-7.2,3.2c-3.2,0-4.4-2-4.4-2.9c0-1.2,0.7-2.2,1.4-2.7c0.5-0.4,1-0.2,1.4,0.2c1.4,1.5,3.2,2.5,4.6,2.5
		c1.2,0,2.5-0.4,3.8-5.1c2.8-9.5,4.9-19.8,7.8-29.6h-5c-0.6-0.5-0.4-1.7,0.4-2.2h5.2c1.6-5.4,3.2-10.1,6.7-14.3c3-3.6,6.1-5,9.6-5
		c2.2,0,4.6,1.6,4.6,4c0,1.6-1.6,3.4-2.6,3.4c-0.5,0-0.8-0.5-0.8-1c-0.2-3.3-1.9-4.4-3.4-4.4c-1.3,0-2.9,1.2-4.3,3.2
		c-2.8,4-4,8.3-5.6,14h7.5c0.4,0.7,0.3,1.6-0.6,2.2H497.2L497.2,341.9z"/>
	<path class="st3" d="M534.1,344.1c-0.5,1.4-0.4,1.4,1.3,1.4h7.4c1.7,0,1.9-0.2,1.3-1.9l-3.2-9.8c-0.5-1.4-1-3.1-1.4-3.8h-0.1
		c-0.2,0.3-0.8,1.7-1.4,3.6L534.1,344.1L534.1,344.1z M546,349.5c-0.4-1.3-0.7-1.5-2.5-1.5h-9.1c-1.5,0-1.9,0.2-2.3,1.4l-2.1,6.3
		c-0.9,2.7-1.3,4.3-1.3,5c0,0.7,0.3,1.1,1.7,1.2l2,0.2c0.4,0.3,0.4,1.3-0.1,1.5c-1.6-0.1-3.4-0.1-6.3-0.2c-2,0-4.2,0.1-5.8,0.2
		c-0.4-0.2-0.5-1.2-0.1-1.5l2-0.2c1.4-0.1,2.8-0.8,3.6-2.9c1.1-2.8,2.8-6.7,5.3-13.4l6.1-16.2c0.8-2.2,1.2-3.3,1-4.3
		c1.4-0.4,2.5-1.5,3.1-2.3c0.4,0,0.8,0.1,0.9,0.5c0.8,2.6,1.7,5.4,2.6,8.1l8.2,24.2c1.7,5.2,2.5,6.1,5.1,6.4l1.6,0.2
		c0.4,0.3,0.3,1.3,0,1.5c-2.5-0.1-4.6-0.2-7.3-0.2c-2.9,0-5.2,0.1-6.9,0.2c-0.5-0.2-0.5-1.2-0.1-1.5l1.7-0.2
		c1.3-0.1,2.1-0.5,2.1-1.1c0-0.7-0.3-1.7-0.8-3.2L546,349.5L546,349.5z"/>
	<path class="st3" d="M574.6,341.4c0,1.1,0,1.7,0.2,2c0.2,0.2,1.1,0.3,4.2,0.3c2.2,0,4.5-0.2,6.2-1.6c1.6-1.3,3-3.4,3-7.5
		c0-4.8-2.9-9.3-9.6-9.3c-3.7,0-3.9,0.2-3.9,1.9V341.4L574.6,341.4z M569.6,332.8c0-5.7-0.2-6.7-2.6-7l-1.9-0.2
		c-0.4-0.3-0.4-1.3,0.1-1.5c3.4-0.3,7.5-0.5,13.4-0.5c3.7,0,7.3,0.3,10,1.8c2.9,1.5,5,4.2,5,8.4c0,5.7-4.5,8.8-7.5,10
		c-0.3,0.4,0,1,0.3,1.4c4.8,7.8,8,12.6,12.1,16c1,0.9,2.5,1.6,4.1,1.7c0.3,0.1,0.4,0.6,0.1,0.8c-0.5,0.2-1.5,0.3-2.6,0.3
		c-5.1,0-8.2-1.5-12.5-7.6c-1.6-2.2-4-6.4-5.9-9.1c-0.9-1.3-1.9-1.9-4.3-1.9c-2.7,0-2.8,0.1-2.8,1.3v7.6c0,6.3,0.1,7,3.6,7.5
		l1.3,0.2c0.4,0.3,0.2,1.3-0.1,1.5c-2.7-0.1-4.8-0.2-7.2-0.2c-2.5,0-4.7,0.1-7.5,0.2c-0.4-0.2-0.5-1.1-0.1-1.5l1.5-0.2
		c3.5-0.4,3.6-1.2,3.6-7.5V332.8L569.6,332.8z"/>
	<path class="st3" d="M623.2,354.4c0,6.3,0.1,7.2,3.6,7.5l1.9,0.2c0.4,0.2,0.2,1.3-0.1,1.5c-3.4-0.1-5.5-0.2-7.9-0.2
		s-4.5,0.1-8.4,0.2c-0.4-0.2-0.5-1.2,0-1.5l2.2-0.2c3.4-0.3,3.7-1.2,3.7-7.5v-26.9c0-1.9,0-1.9-1.8-1.9h-3.3c-2.6,0-5.9,0.1-7.4,1.5
		c-1.4,1.3-2,2.6-2.7,4.2c-0.5,0.4-1.3,0.1-1.6-0.4c1-2.7,1.9-6.6,2.3-9c0.2-0.1,1-0.2,1.1,0c0.4,1.9,2.3,1.9,5.1,1.9h24.4
		c3.2,0,3.8-0.1,4.7-1.7c0.3-0.1,1-0.1,1.1,0.2c-0.7,2.5-1.1,7.3-0.9,9.1c-0.2,0.5-1.3,0.5-1.6,0.1c-0.2-1.5-0.6-3.7-1.5-4.4
		c-1.4-1-3.7-1.5-7-1.5h-4.3c-1.8,0-1.7,0.1-1.7,2V354.4L623.2,354.4z"/>
	<path class="st3" d="M656.5,364.4c-5.1,0-8.2-1.6-9.4-2.2c-0.7-1.3-1.5-5.6-1.6-8.4c0.3-0.4,1.2-0.5,1.4-0.2c0.9,3.1,3.4,9,10.3,9
		c5.1,0,7.5-3.3,7.5-6.9c0-2.6-0.5-5.6-4.9-8.4l-5.7-3.7c-3-2-6.5-5.4-6.5-10.3c0-5.7,4.5-10.3,12.3-10.3c1.9,0,4,0.4,5.6,0.8
		c0.8,0.2,1.6,0.4,2.1,0.4c0.5,1.4,1.1,4.8,1.1,7.3c-0.2,0.4-1.2,0.5-1.5,0.2c-0.8-2.9-2.4-6.8-8.2-6.8c-5.9,0-7.2,3.9-7.2,6.7
		c0,3.5,2.9,6,5.1,7.4l4.8,3c3.8,2.4,7.5,5.8,7.5,11.5C669.3,359.9,664.3,364.4,656.5,364.4"/>
	<path class="st3" d="M702.8,340.1c0.6,2.1,2.2,3.8,4.6,3.8c1.6,0,2.9-1,2.9-2.6c0-1.5-1.1-3.2-3.4-3.2
		C704.7,338.2,703.1,339.7,702.8,340.1 M714.9,327.5c0,1.3-1,2.4-2.3,2.4c-1.1,0-1.4-0.7-1.7-1.8c-0.2-0.8-1-1.7-2.2-1.7
		c-1.1,0-2.5,0.5-3.9,1.9c-2.5,2.3-3,5.7-3,7.6c0,1.2,0.1,2.1,0.4,2.6c0.8-0.8,2.7-2.1,4.9-2.1c4,0,5.2,2.8,5.2,5c0,3.2-2.5,5-5.2,5
		c-3,0-5.1-1.9-6-4c-0.8,1.2-1.6,3.1-1.6,6.1c0,5.2,4,11.9,13.8,11.9c3.7,0,7-1.2,9.4-3.1c2.8-2.2,5.6-6.5,5.6-11.1
		c0-3.8-1-5.9-1.3-6.3c-0.4-0.5-1.6-0.8-4-0.8c-2.3,0-4.4,1.3-4.4,4.1c0,1.1,0.8,1.7,1.2,1.7c0.4,0,0.7-0.2,1-0.8
		c0.4-0.5,0.7-1.1,1.6-1.1c1.1,0,1.9,0.8,1.9,1.9c0,1.6-1.6,2.5-3.2,2.5c-2.7,0-4.3-2.2-4.3-4.3c0-1.3,0.4-2.7,1.6-4
		c1.7-2,4.8-2.5,6.5-2.5c1.2,0,2.4,0.1,4.9,0.1c2.9,0,9-0.1,9-6.4c0-3.6-3.1-4.9-4.6-4.9c-0.9,0-1.2,0.8-1.2,1.1
		c0,0.3,0.1,0.5,0.6,0.9s1.3,0.9,1.3,2c0,1.8-1.3,2.5-2.6,2.5c-1.7,0-2.9-1.4-2.9-3.1c0-2.2,1.7-4.8,5.2-4.8c3.3,0,6.5,2.9,6.5,7.6
		c0,2.7-1,4.4-2.5,5.8c-2.9,2.7-8,2.5-8.7,2.5c-0.7,0-0.8,0.2-0.5,1c0.2,0.5,1.6,3.5,1.6,7c0,8-7,16.4-17.7,16.4
		c-12.6,0-16.2-8.7-16.2-14.6c0-3.4,1.3-6.8,3.4-9.3c-0.3-1-0.5-2.2-0.5-4.1c0-3.1,1.1-6.3,3-8.7c2-2.5,5.1-3.8,7.3-3.8
		C713.2,323.8,714.9,325.6,714.9,327.5"/>
	<path class="st3" d="M770.8,364.4c-5,0-8.2-1.6-9.4-2.2c-0.7-1.3-1.5-5.6-1.6-8.4c0.3-0.4,1.2-0.5,1.4-0.2c0.9,3.1,3.4,9,10.3,9
		c5,0,7.5-3.3,7.5-6.9c0-2.6-0.5-5.6-4.9-8.4l-5.7-3.7c-3-2-6.5-5.4-6.5-10.3c0-5.7,4.5-10.3,12.3-10.3c1.9,0,4,0.4,5.6,0.8
		c0.8,0.2,1.6,0.4,2.1,0.4c0.5,1.4,1.1,4.8,1.1,7.3c-0.2,0.4-1.2,0.5-1.5,0.2c-0.8-2.9-2.4-6.8-8.2-6.8c-5.9,0-7.2,3.9-7.2,6.7
		c0,3.5,2.9,6,5.1,7.4l4.8,3c3.8,2.4,7.5,5.8,7.5,11.5C783.7,359.9,778.7,364.4,770.8,364.4"/>
	<path class="st3" d="M798.4,327.9c4.4-3.4,10-5.1,16.2-5.1c3.2,0,7.8,0.7,10.6,1.4c0.7,0.2,1.1,0.3,1.7,0.2
		c0.1,1.4,0.4,5.2,0.8,8.8c-0.3,0.4-1.2,0.5-1.6,0.1c-0.9-4.1-3.6-8.8-12.3-8.8c-9.2,0-17,5.8-17,18.3c0,12.6,8,19.6,17.9,19.6
		c7.8,0,11.2-5,12.6-8.6c0.4-0.3,1.3-0.2,1.6,0.2c-0.4,3.1-2,7.1-2.9,8.2c-0.7,0.1-1.4,0.4-2.1,0.6c-1.3,0.5-5.7,1.4-9.5,1.4
		c-5.4,0-10.6-1.1-15-4c-4.8-3.3-8.5-8.8-8.5-16.5C790.9,337.1,793.9,331.4,798.4,327.9"/>
	<path class="st3" d="M840.8,332.9c0-6.4-0.1-7.4-3.7-7.7l-1.5-0.1c-0.4-0.2-0.2-1.3,0.1-1.5c3,0.1,5.1,0.2,7.6,0.2
		c2.4,0,4.5-0.1,7.5-0.2c0.4,0.2,0.5,1.3,0.1,1.5l-1.5,0.1c-3.5,0.3-3.7,1.3-3.7,7.7v21.4c0,6.4,0.1,7.2,3.7,7.6l1.5,0.2
		c0.4,0.2,0.2,1.3-0.1,1.5c-3-0.1-5.1-0.2-7.5-0.2c-2.5,0-4.6,0.1-7.6,0.2c-0.4-0.2-0.5-1.1-0.1-1.5l1.5-0.2
		c3.6-0.4,3.7-1.3,3.7-7.6V332.9L840.8,332.9z"/>
	<path class="st3" d="M864.1,332.7c0-6.3-0.1-7.2-3.7-7.6l-1-0.1c-0.4-0.2-0.2-1.3,0.1-1.5c2.6,0.1,4.6,0.2,7.1,0.2H878
		c3.9,0,7.4,0,8.1-0.2c0.4,1,0.7,5.4,1,8c-0.2,0.4-1.2,0.5-1.5,0.1c-0.9-2.8-1.4-4.9-4.6-5.7c-1.3-0.3-3.2-0.4-5.8-0.4h-4.3
		c-1.8,0-1.8,0.1-1.8,2.4v12c0,1.7,0.2,1.7,2,1.7h3.5c2.5,0,4.4-0.1,5.1-0.4c0.7-0.2,1.1-0.6,1.4-2.1l0.5-2.5
		c0.3-0.4,1.3-0.4,1.6,0.1c0,1.4-0.2,3.8-0.2,6.1c0,2.2,0.2,4.5,0.2,5.8c-0.2,0.4-1.3,0.4-1.6,0.1l-0.5-2.3c-0.2-1.1-0.7-2-1.9-2.3
		c-0.8-0.2-2.3-0.3-4.6-0.3H871c-1.8,0-2,0.1-2,1.6v8.5c0,3.2,0.2,5.2,1.1,6.3c0.7,0.7,2,1.4,7.3,1.4c4.6,0,6.4-0.2,7.7-0.9
		c1.1-0.6,2.7-2.7,4.3-5.8c0.4-0.3,1.3-0.1,1.5,0.4c-0.4,2.1-1.9,6.7-2.7,8.4c-5.4-0.1-10.8-0.2-16.1-0.2h-5.4
		c-2.6,0-4.6,0.1-8.2,0.2c-0.4-0.2-0.5-1.1-0.1-1.5l2-0.2c3.4-0.3,3.7-1.2,3.7-7.5V332.7L864.1,332.7z"/>
	<path class="st3" d="M934.5,353.2c0,1.8,0,9,0.2,10.5c-0.1,0.4-0.5,0.7-1.1,0.7c-0.7-1-2.5-3.1-7.7-9.1l-14-15.9
		c-1.6-1.9-5.7-6.8-7-8.1h-0.1c-0.2,0.7-0.3,2.1-0.3,3.9v13.1c0,2.8,0.1,10.6,1.1,12.4c0.4,0.7,1.6,1,3.1,1.1l1.9,0.2
		c0.4,0.5,0.3,1.2-0.1,1.5c-2.7-0.1-4.8-0.2-7-0.2c-2.5,0-4.1,0.1-6.2,0.2c-0.4-0.3-0.5-1.1-0.1-1.5l1.6-0.2
		c1.4-0.2,2.3-0.5,2.6-1.2c0.8-2.2,0.8-9.5,0.8-12.4v-17.4c0-1.7-0.1-2.9-1.3-4.3c-0.8-0.8-2.3-1.3-3.7-1.4l-1-0.1
		c-0.4-0.4-0.4-1.3,0.1-1.5c2.5,0.2,5.7,0.2,6.8,0.2c1,0,2-0.1,2.8-0.2c1.2,3.1,8.3,11,10.3,13.2l5.8,6.6c4.1,4.6,7.1,8,9.9,10.9
		h0.1c0.2-0.3,0.2-1.3,0.2-2.5v-12.9c0-2.8-0.1-10.6-1.2-12.4c-0.4-0.5-1.3-0.9-3.7-1.2l-1-0.1c-0.4-0.4-0.4-1.3,0.1-1.5
		c2.8,0.1,4.8,0.2,7.1,0.2c2.6,0,4.1-0.1,6.2-0.2c0.5,0.3,0.5,1.1,0.1,1.5l-0.8,0.1c-1.9,0.3-3.1,0.8-3.4,1.3
		c-1,2.2-0.9,9.6-0.9,12.4V353.2L934.5,353.2z"/>
	<path class="st3" d="M953.2,327.9c4.4-3.4,10-5.1,16.2-5.1c3.2,0,7.8,0.7,10.6,1.4c0.7,0.2,1.1,0.3,1.7,0.2
		c0.1,1.4,0.4,5.2,0.8,8.8c-0.3,0.4-1.2,0.5-1.6,0.1c-0.9-4.1-3.6-8.8-12.3-8.8c-9.2,0-17,5.8-17,18.3c0,12.6,8,19.6,17.9,19.6
		c7.8,0,11.2-5,12.6-8.6c0.4-0.3,1.3-0.2,1.6,0.2c-0.4,3.1-2,7.1-2.9,8.2c-0.7,0.1-1.4,0.4-2.1,0.6c-1.3,0.5-5.7,1.4-9.5,1.4
		c-5.4,0-10.6-1.1-15-4c-4.8-3.3-8.5-8.8-8.5-16.5C945.6,337.1,948.6,331.4,953.2,327.9"/>
	<path class="st3" d="M995.5,332.7c0-6.3-0.1-7.2-3.7-7.6l-1-0.1c-0.4-0.2-0.2-1.3,0.1-1.5c2.6,0.1,4.6,0.2,7.1,0.2h11.3
		c3.8,0,7.4,0,8.1-0.2c0.4,1,0.7,5.4,1,8c-0.2,0.4-1.2,0.5-1.5,0.1c-0.9-2.8-1.4-4.9-4.6-5.7c-1.3-0.3-3.2-0.4-5.8-0.4h-4.3
		c-1.8,0-1.8,0.1-1.8,2.4v12c0,1.7,0.2,1.7,2,1.7h3.5c2.5,0,4.4-0.1,5.1-0.4c0.7-0.2,1.1-0.6,1.4-2.1l0.5-2.5
		c0.3-0.4,1.3-0.4,1.6,0.1c0,1.4-0.2,3.8-0.2,6.1c0,2.2,0.2,4.5,0.2,5.8c-0.2,0.4-1.3,0.4-1.6,0.1l-0.5-2.3c-0.2-1.1-0.7-2-1.9-2.3
		c-0.8-0.2-2.3-0.3-4.6-0.3h-3.5c-1.8,0-2,0.1-2,1.6v8.5c0,3.2,0.2,5.2,1.1,6.3c0.7,0.7,2,1.4,7.3,1.4c4.6,0,6.4-0.2,7.7-0.9
		c1.1-0.6,2.7-2.7,4.3-5.8c0.4-0.3,1.3-0.1,1.5,0.4c-0.4,2.1-1.9,6.7-2.7,8.4c-5.4-0.1-10.8-0.2-16.1-0.2h-5.4
		c-2.6,0-4.6,0.1-8.2,0.2c-0.4-0.2-0.5-1.1-0.1-1.5l2-0.2c3.4-0.3,3.7-1.2,3.7-7.5V332.7L995.5,332.7z"/>
	<path class="st3" d="M1039.4,364.4c-5.1,0-8.2-1.6-9.4-2.2c-0.7-1.3-1.5-5.6-1.6-8.4c0.3-0.4,1.2-0.5,1.4-0.2c0.9,3.1,3.4,9,10.3,9
		c5.1,0,7.5-3.3,7.5-6.9c0-2.6-0.5-5.6-4.9-8.4l-5.7-3.7c-3-2-6.5-5.4-6.5-10.3c0-5.7,4.5-10.3,12.3-10.3c1.9,0,4,0.4,5.6,0.8
		c0.8,0.2,1.6,0.4,2.1,0.4c0.5,1.4,1.1,4.8,1.1,7.3c-0.2,0.4-1.2,0.5-1.5,0.2c-0.8-2.9-2.4-6.8-8.2-6.8c-5.9,0-7.2,3.9-7.2,6.7
		c0,3.5,2.9,6,5.1,7.4l4.8,3c3.8,2.4,7.5,5.8,7.5,11.5C1052.2,359.9,1047.2,364.4,1039.4,364.4"/>
</g>
</svg>
